<?xml version="1.0" encoding="utf-8"?>
<?xml-stylesheet type="text/xsl" href="rss1.xsl"?>
<rss version="2.0" xmlns:atom="http://www.w3.org/2005/Atom" xmlns:content="http://purl.org/rss/1.0/modules/content/" xmlns:dc="http://purl.org/dc/elements/1.1/" xmlns:media="http://search.yahoo.com/mrss/">
<channel>
 <title>Getty</title>
 <link>http://www.gettyimg.com/</link>
 <atom:link href="http://www.gettyimg.com/" rel="self" type="application/rss+xml" />

 
                <item>
                <title><![CDATA[【Singles (lossless)】FLAC - Oretardi - BREAK A NECK (w Ayesha Erotica) [Qobuz Hi-Res 24-Bit/48 kHz]]]></title>
                <link><![CDATA[https://sharemania.us/threads/oretardi-break-a-neck-w-ayesha-erotica-qobuz-hi-res-24-bit-48-khz.242827/]]></link>
                <description><![CDATA[<article>
<blockquote class="messageText SelectQuoteContainer ugc baseHtml">
<div style="text-align: center"><img src="https://static.qobuz.com/images/covers/ea/4y/eg50mqp0b4yea_600.jpg" class="bbCodeImage LbImage" alt="[​IMG]" data-url="https://static.qobuz.com/images/covers/ea/4y/eg50mqp0b4yea_600.jpg" style=""><br>
<br>
<div class="bbCodeBlock bbCodeVfcHH HiddenContent">
<div class="attribution type">Hidden Content:</div>
<blockquote>You must reply before you can see the hidden data contained here.</blockquote>
</div></div>
<div class="messageTextEndMarker">&nbsp;</div>
</blockquote>
</article>]]></description>
                <author><![CDATA[aove]]></author>
                </item>

                
                <item>
                <title><![CDATA[【Apple Music】WEB-RiP - Lil Nas X - J CHRIST (Explicit) [Apple HD Music Video]]]></title>
                <link><![CDATA[https://sharemania.us/threads/lil-nas-x-j-christ-explicit-apple-hd-music-video.242826/]]></link>
                <description><![CDATA[<article>
<blockquote class="messageText SelectQuoteContainer ugc baseHtml">
<span style="font-size: 22px"><b>Lil Nas X - J CHRIST (Explicit) [Apple HD Music Video]</b></span><br>
<br>
<img src="https://imgur.com/HGgh02j.jpg" class="bbCodeImage LbImage" alt="[​IMG]" data-url="https://imgur.com/HGgh02j.jpg" style=""><br>
<br>
<div class="bbCodeBlock bbCodeCode">
<div class="type">Code:</div>
<pre>General
Format                         : MPEG-4
Codec ID                       : M4V  (isom/iso4/M4V /mp42)
File size                      : 206 MiB
Duration                       : 2 min 51 s
Overall bit rate mode          : Variable
Overall bit rate               : 10.1 Mb/s
Movie name                     : J CHRIST
Performer                      : Lil Nas X
Genre                          : Pop
ContentType                    : Music Video
Recorded date                  : UTC 2024-01-14 08:00:00
Encoded date                   : UTC 2024-04-22 10:14:52
Tagged date                    : UTC 2024-04-22 10:14:52
Copyright                      : ℗ (C) 2024 Columbia Records, a Division of Sony Music Entertainment
Cover                          : Yes
Rating                         : Explicit
GenreID                        : 1614
AppleStoreCountry              : United Kingdom
AlbumTitleID                   : 1400730578
AppleStoreCatalogID            : 1725340608

Video
ID                             : 2
Format                         : AVC
Format/Info                    : Advanced Video Codec
Format profile                 : High@L4
Format settings                : CABAC / 4 Ref Frames
Format settings, CABAC         : Yes
Format settings, Reference fra : 4 frames
Codec ID                       : avc1
Codec ID/Info                  : Advanced Video Coding
Duration                       : 2 min 51 s
Bit rate                       : 9 796 kb/s
Maximum bit rate               : 20.4 Mb/s
Width                          : 1 920 pixels
Height                         : 1 080 pixels
Display aspect ratio           : 16:9
Frame rate mode                : Constant
Frame rate                     : 23.976 (24000/1001) FPS
Color space                    : YUV
Chroma subsampling             : 4:2:0
Bit depth                      : 8 bits
Scan type                      : Progressive
Bits/(Pixel*Frame)             : 0.197
Stream size                    : 200 MiB (97%)
Title                          : Core Media Video
Encoded date                   : UTC 2024-03-06 02:43:57
Tagged date                    : UTC 2024-04-22 10:15:02
Color range                    : Limited
Color primaries                : BT.709
Transfer characteristics       : BT.709
Matrix coefficients            : BT.709
Codec configuration box        : avcC

Audio
ID                             : 1
Format                         : AAC LC
Format/Info                    : Advanced Audio Codec Low Complexity
Codec ID                       : mp4a-40-2
Duration                       : 2 min 51 s
Duration_LastFrame             : -11 ms
Bit rate mode                  : Variable
Bit rate                       : 265 kb/s
Maximum bit rate               : 353 kb/s
Channel(s)                     : 2 channels
Channel layout                 : L R
Sampling rate                  : 48.0 kHz
Frame rate                     : 46.875 FPS (1024 SPF)
Compression mode               : Lossy
Stream size                    : 5.35 MiB (3%)
Title                          : Core Media Audio
Encoded date                   : UTC 2024-03-06 02:43:51
Tagged date                    : UTC 2024-04-22 10:15:02
</pre>
</div>
<div class="bbCodeBlock bbCodeVfcHH HiddenContent">
<div class="attribution type">Hidden Content:</div>
<blockquote>You must reply before you can see the hidden data contained here.</blockquote>
</div>
<div class="messageTextEndMarker">&nbsp;</div>
</blockquote>
</article>]]></description>
                <author><![CDATA[Mu$iC @$YLUM]]></author>
                </item>

                </channel></rss>